<?xml version="1.0"?>
<svg width="1280" height="1180" xmlns="http://www.w3.org/2000/svg" xmlns:svg="http://www.w3.org/2000/svg" preserveAspectRatio="xMidYMid meet">
 <metadata>Created by potrace 1.15, written by Peter Selinger 2001-2017</metadata>
 <g class="layer">
  <title>Layer 1</title>
  <g fill="#000000" id="svg_1" transform="translate(0 1180) scale(0.1 -0.1)">
   <path d="m4010,11789c-1105,-89 -2068,-514 -2819,-1244c-510,-496 -874,-1099 -1052,-1745c-252,-915 -157,-1844 276,-2694c272,-533 690,-1023 1198,-1405c638,-478 1381,-767 2232,-868c116,-13 227,-17 490,-17c363,0 485,9 788,60c691,117 1380,410 1930,823c305,229 627,548 843,836c503,669 774,1465 774,2270c0,880 -324,1742 -918,2448c-664,788 -1636,1325 -2702,1491c-290,46 -776,67 -1040,45zm737,-1180c259,-32 496,-90 738,-180c148,-54 424,-191 563,-278c354,-221 671,-523 892,-851c276,-409 424,-838 461,-1335c23,-312 -26,-684 -132,-997c-296,-870 -1034,-1564 -1969,-1851c-849,-260 -1784,-165 -2544,260c-755,422 -1282,1120 -1440,1905c-41,206 -50,303 -50,523c0,220 9,317 50,523c142,708 584,1344 1234,1777c475,316 1027,495 1635,529c121,7 414,-6 562,-25z" fill="#69be28" id="svg_2"/>
   <path d="m8496,5040c-244,-346 -653,-735 -1051,-1000c-82,-55 -158,-106 -168,-113c-16,-11 212,-223 2054,-1922c1139,-1051 2095,-1931 2124,-1957l52,-47l647,596c514,474 644,599 634,608c-148,136 -1759,1620 -2830,2608c-775,713 -1409,1297 -1410,1297c-2,-1 -25,-32 -52,-70z" fill="#69be28" id="svg_3"/>
  </g>
 </g>
</svg>